<svg width="32" height="32" viewBox="0 0 32 32" fill="none" xmlns="http://www.w3.org/2000/svg">
<path opacity="0.5" fill-rule="evenodd" clip-rule="evenodd" d="M9.16431 10.4982C12.0211 7.6414 16.2229 6.94569 19.734 8.41421L21.2409 6.90724C16.8683 4.70847 11.4013 5.43279 7.7501 9.08396C3.19398 13.6401 3.19398 21.027 7.7501 25.5831C12.3062 30.1392 19.6931 30.1392 24.2493 25.5831C26.8992 22.9332 28.0072 19.3247 27.5755 15.8767C27.5069 15.3287 27.007 14.94 26.459 15.0086C25.911 15.0773 25.5224 15.5771 25.591 16.1251C25.9493 18.987 25.03 21.974 22.835 24.1689C19.06 27.944 12.9394 27.944 9.16431 24.1689C5.38924 20.3938 5.38924 14.2732 9.16431 10.4982Z" fill="#B027F0"/>
<path d="M24.9616 5.60159C24.9616 5.19713 24.7179 4.83249 24.3443 4.67771C23.9706 4.52293 23.5405 4.60849 23.2545 4.89448L21.2419 6.90704L19.7349 8.41401L17.5976 10.5513C17.3116 10.8373 17.2261 11.2675 17.3808 11.6411C17.5356 12.0148 17.9003 12.2584 18.3047 12.2584H23.9616C24.5139 12.2584 24.9616 11.8107 24.9616 11.2584V5.60159Z" fill="#B027F0"/>
</svg>
