<svg width="32" height="32" viewBox="0 0 32 32" fill="none" xmlns="http://www.w3.org/2000/svg">
<path fill-rule="evenodd" clip-rule="evenodd" d="M4.33301 9.33301C4.33301 8.78072 4.78072 8.33301 5.33301 8.33301H26.6663C27.2186 8.33301 27.6663 8.78072 27.6663 9.33301C27.6663 9.88529 27.2186 10.333 26.6663 10.333H5.33301C4.78072 10.333 4.33301 9.88529 4.33301 9.33301Z" fill="#E7515A"/>
<path opacity="0.7" d="M4.33301 16C4.33301 15.4477 4.78072 15 5.33301 15H19.9997C20.552 15 20.9997 15.4477 20.9997 16C20.9997 16.5523 20.552 17 19.9997 17H5.33301C4.78072 17 4.33301 16.5523 4.33301 16Z" fill="#E7515A"/>
<path opacity="0.4" d="M4.33301 22.667C4.33301 22.1147 4.78072 21.667 5.33301 21.667H11.9997C12.552 21.667 12.9997 22.1147 12.9997 22.667C12.9997 23.2193 12.552 23.667 11.9997 23.667H5.33301C4.78072 23.667 4.33301 23.2193 4.33301 22.667Z" fill="#E7515A"/>
</svg>
