<svg width="36" height="36" viewBox="0 0 36 36" fill="none" xmlns="http://www.w3.org/2000/svg">
<circle cx="18" cy="18" r="18" fill="#F3F5F8"/>
<path fill-rule="evenodd" clip-rule="evenodd" d="M18 8.75C12.8914 8.75 8.75 12.8914 8.75 18C8.75 23.1086 12.8914 27.25 18 27.25C23.1086 27.25 27.25 23.1086 27.25 18C27.25 12.8914 23.1086 8.75 18 8.75ZM7.25 18C7.25 12.0629 12.0629 7.25 18 7.25C23.9371 7.25 28.75 12.0629 28.75 18C28.75 23.9371 23.9371 28.75 18 28.75C12.0629 28.75 7.25 23.9371 7.25 18ZM18 13.75C17.3787 13.75 16.875 14.2537 16.875 14.875C16.875 15.2892 16.5392 15.625 16.125 15.625C15.7108 15.625 15.375 15.2892 15.375 14.875C15.375 13.4253 16.5503 12.25 18 12.25C19.4497 12.25 20.625 13.4253 20.625 14.875C20.625 15.8383 20.1056 16.6796 19.3353 17.1354C19.1385 17.2518 18.9761 17.3789 18.8703 17.5036C18.7675 17.6246 18.75 17.7036 18.75 17.75V19C18.75 19.4142 18.4142 19.75 18 19.75C17.5858 19.75 17.25 19.4142 17.25 19V17.75C17.25 17.2441 17.4715 16.8336 17.7266 16.533C17.9786 16.236 18.2929 16.0092 18.5715 15.8444C18.9044 15.6474 19.125 15.2866 19.125 14.875C19.125 14.2537 18.6213 13.75 18 13.75ZM18 23C18.5523 23 19 22.5523 19 22C19 21.4477 18.5523 21 18 21C17.4477 21 17 21.4477 17 22C17 22.5523 17.4477 23 18 23Z" fill="#80858E"/>
</svg>
