<svg width="32" height="32" viewBox="0 0 32 32" fill="none" xmlns="http://www.w3.org/2000/svg">
<path d="M15.9997 13.3337C21.8907 13.3337 26.6663 10.9458 26.6663 8.00033C26.6663 5.05481 21.8907 2.66699 15.9997 2.66699C10.1086 2.66699 5.33301 5.05481 5.33301 8.00033C5.33301 10.9458 10.1086 13.3337 15.9997 13.3337Z" fill="#E2A03F"/>
<path opacity="0.5" d="M5.33301 16V24C5.33301 26.9455 10.1086 29.3333 15.9997 29.3333C21.8907 29.3333 26.6663 26.9455 26.6663 24V16C26.6663 18.9455 21.8907 21.3333 15.9997 21.3333C10.1086 21.3333 5.33301 18.9455 5.33301 16Z" fill="#E2A03F"/>
<path opacity="0.7" d="M5.33301 8V16C5.33301 18.9455 10.1086 21.3333 15.9997 21.3333C21.8907 21.3333 26.6663 18.9455 26.6663 16V8C26.6663 10.9455 21.8907 13.3333 15.9997 13.3333C10.1086 13.3333 5.33301 10.9455 5.33301 8Z" fill="#E2A03F"/>
</svg>
