<svg width="36" height="36" viewBox="0 0 36 36" fill="none" xmlns="http://www.w3.org/2000/svg">
<circle cx="18" cy="18" r="18" fill="#F3F5F8"/>
<path d="M17.9997 19.1663L13.9163 23.2497C13.7636 23.4025 13.5691 23.4788 13.333 23.4788C13.0969 23.4788 12.9025 23.4025 12.7497 23.2497C12.5969 23.0969 12.5205 22.9025 12.5205 22.6663C12.5205 22.4302 12.5969 22.2358 12.7497 22.083L16.833 17.9997L12.7497 13.9163C12.5969 13.7636 12.5205 13.5691 12.5205 13.333C12.5205 13.0969 12.5969 12.9025 12.7497 12.7497C12.9025 12.5969 13.0969 12.5205 13.333 12.5205C13.5691 12.5205 13.7636 12.5969 13.9163 12.7497L17.9997 16.833L22.083 12.7497C22.2358 12.5969 22.4302 12.5205 22.6663 12.5205C22.9025 12.5205 23.0969 12.5969 23.2497 12.7497C23.4025 12.9025 23.4788 13.0969 23.4788 13.333C23.4788 13.5691 23.4025 13.7636 23.2497 13.9163L19.1663 17.9997L23.2497 22.083C23.4025 22.2358 23.4788 22.4302 23.4788 22.6663C23.4788 22.9025 23.4025 23.0969 23.2497 23.2497C23.0969 23.4025 22.9025 23.4788 22.6663 23.4788C22.4302 23.4788 22.2358 23.4025 22.083 23.2497L17.9997 19.1663Z" fill="#80858E"/>
</svg>
