<svg width="10" height="13" viewBox="0 0 10 13" fill="none" xmlns="http://www.w3.org/2000/svg">
<path d="M3.66667 0.166992C3.482 0.166992 3.33333 0.315666 3.33333 0.500322V1.50032H0.666667C0.297333 1.50032 0 1.79765 0 2.16699C0 2.53632 0.297333 2.83365 0.666667 2.83365H9.33333C9.70267 2.83365 10 2.53632 10 2.16699C10 1.79765 9.70267 1.50032 9.33333 1.50032H6.66667V0.500322C6.66667 0.315666 6.51801 0.166992 6.33333 0.166992H3.66667ZM4 0.833652H6V1.50032H4V0.833652ZM0.666667 3.50032C0.297333 3.50032 -0.0503135 3.80272 0.0104193 4.16699L1.33333 12.167C1.3936 12.5313 1.63067 12.8337 2 12.8337H8C8.36933 12.8337 8.60593 12.5312 8.66667 12.167L9.98958 4.16699C10.0498 3.80266 9.70267 3.50032 9.33333 3.50032H0.666667Z" fill="white"/>
</svg>
